<?xml version="1.0" standalone="no"?><!DOCTYPE svg PUBLIC "-//W3C//DTD SVG 1.1//EN" "http://www.w3.org/Graphics/SVG/1.1/DTD/svg11.dtd"><svg t="1576758560696" class="icon" viewBox="0 0 1024 1024" version="1.1" xmlns="http://www.w3.org/2000/svg" p-id="3704" xmlns:xlink="http://www.w3.org/1999/xlink" width="64" height="64"><defs><style type="text/css"></style></defs><path d="M56.88888853 921.6h910.22222294a45.51111147 45.51111147 0 0 1 0 91.02222187H56.88888853a45.51111147 45.51111147 0 0 1 0-91.02222187zM147.91111147 11.37777813h728.17777706a91.02222187 91.02222187 0 0 1 91.02222294 91.02222187v637.1555552a91.02222187 91.02222187 0 0 1-91.02222294 91.02222293H147.91111147a91.02222187 91.02222187 0 0 1-91.02222294-91.02222293V102.4a91.02222187 91.02222187 0 0 1 91.02222294-91.02222187z m125.88373333 637.1555552h474.68088853a45.51111147 45.51111147 0 0 0 38.59342187-69.632L640.34133333 344.20053333a45.51111147 45.51111147 0 0 0-76.45866666-1.09226666L420.97777813 557.51111147l-51.10897813-76.68622294a45.51111147 45.51111147 0 0 0-76.91377813 1.8204448l-58.1632 96.93866667A45.51111147 45.51111147 0 0 0 273.7948448 648.53333333zM284.4444448 329.9555552a45.51111147 45.51111147 0 1 0 0-91.02222187 45.51111147 45.51111147 0 0 0 0 91.02222187z" p-id="3705"></path></svg>