<?xml version="1.0" standalone="no"?><!DOCTYPE svg PUBLIC "-//W3C//DTD SVG 1.1//EN" "http://www.w3.org/Graphics/SVG/1.1/DTD/svg11.dtd"><svg t="1548742899488" class="icon" style="" viewBox="0 0 1024 1024" version="1.1" xmlns="http://www.w3.org/2000/svg" p-id="32124" xmlns:xlink="http://www.w3.org/1999/xlink" width="64" height="64"><defs><style type="text/css"></style></defs><path d="M895.998 319.999 575.999 319.999 575.999 64l64 0 0 192 255.999 0L895.998 319.999zM790.988 754.008l186.405 186.41-40.725 40.725-186.41-186.405L790.988 754.008zM686.588 844.798c-83.2 0-153.6-70.4-153.6-153.6s70.4-153.6 153.6-153.6 153.6 70.4 153.6 153.6C833.788 774.398 769.788 844.798 686.588 844.798zM686.588 601.598c-51.2 0-89.6 38.4-89.6 89.6s38.4 89.6 89.6 89.6c51.2 0 89.6-38.4 89.6-89.6S731.388 601.598 686.588 601.598zM639.998 1023.997 187.392 1023.997c-76.8 0-123.392-70.4-123.392-153.6L64 129.215C64 54.655 110.592 0 187.392 0l441.596 0 331.009 249.599 0 390.399-64 0L895.997 275.199 609.788 64 187.392 64C142.592 64 128 97.727 128 133.44l0 743.358c0 44.8 14.592 83.2 59.392 83.2l452.606 0L639.998 1023.997zM191.999 191.999l255.999 0 0 64L191.999 255.999 191.999 191.999zM191.999 319.999l319.999 0 0 64L191.999 383.999 191.999 319.999zM191.999 447.999l383.999 0 0 64L191.999 511.999 191.999 447.999z" p-id="32125"></path></svg>