<?xml version="1.0" standalone="no"?><!DOCTYPE svg PUBLIC "-//W3C//DTD SVG 1.1//EN" "http://www.w3.org/Graphics/SVG/1.1/DTD/svg11.dtd"><svg t="1548733316727" class="icon" style="" viewBox="0 0 1024 1024" version="1.1" xmlns="http://www.w3.org/2000/svg" p-id="5425" xmlns:xlink="http://www.w3.org/1999/xlink" width="64" height="64"><defs><style type="text/css"></style></defs><path d="M759.509058 1024h-528.516129A165.16129 165.16129 0 0 1 65.831639 858.83871V198.193548A165.16129 165.16129 0 0 1 230.992929 33.032258h466.415484a33.032258 33.032258 0 0 1 0 66.064516H230.992929A99.096774 99.096774 0 0 0 131.896155 198.193548v660.645162a99.096774 99.096774 0 0 0 99.096774 99.096774h528.516129A99.096774 99.096774 0 0 0 858.605832 858.83871V247.741935a33.032258 33.032258 0 0 1 66.064516 0V858.83871a165.16129 165.16129 0 0 1-165.16129 165.16129z" fill="" p-id="5426"></path><path d="M528.283252 396.387097H330.089703a33.032258 33.032258 0 0 1 0-66.064516h198.193549a33.032258 33.032258 0 0 1 0 66.064516zM660.412284 594.580645H330.089703a33.032258 33.032258 0 0 1 0-66.064516h330.322581a33.032258 33.032258 0 0 1 0 66.064516zM660.412284 792.774194H330.089703a33.032258 33.032258 0 0 1 0-66.064517h330.322581a33.032258 33.032258 0 0 1 0 66.064517zM652.484542 338.250323a33.032258 33.032258 0 0 1-23.122581-56.154839L901.547768 9.909677a33.032258 33.032258 0 1 1 46.905806 46.905807L675.607123 330.322581a33.032258 33.032258 0 0 1-23.122581 7.927742z" fill="" p-id="5427"></path></svg>