<?xml version="1.0" standalone="no"?><!DOCTYPE svg PUBLIC "-//W3C//DTD SVG 1.1//EN" "http://www.w3.org/Graphics/SVG/1.1/DTD/svg11.dtd"><svg t="1548733426911" class="icon" style="" viewBox="0 0 1024 1024" version="1.1" xmlns="http://www.w3.org/2000/svg" p-id="6987" xmlns:xlink="http://www.w3.org/1999/xlink" width="64" height="64"><defs><style type="text/css"></style></defs><path d="M918.8 724.6L724.6 918.8 527 721.2c-114.6 40.3-242.4 11.5-329-75.1-89.8-89.8-117.3-224-70-341.9l11.8-29.5 213.5 213.5 134.8-134.8-213.4-213.5 29.5-11.8c117.9-47.3 252.1-19.8 341.9 70C736 288 763.5 422.3 716.2 540.2l-32.3-32c41-102.3 10.4-202.4-67.6-280.4-70.1-70.1-171.4-96.4-265.6-71.1l196.7 196.7-194.1 194.2-196.6-196.7c-25.4 94.1 0.9 195.5 71.1 265.6 78 78 194.5 101.9 296.7 60.9l12.9-5.2 187.3 187.3 134.8-134.8-90-90 29.7-29.7 119.6 119.6z" fill="#1E1E1E" p-id="6988"></path></svg>