<?xml version="1.0" standalone="no"?><!DOCTYPE svg PUBLIC "-//W3C//DTD SVG 1.1//EN" "http://www.w3.org/Graphics/SVG/1.1/DTD/svg11.dtd"><svg t="1541055034499" class="icon" style="" viewBox="0 0 1024 1024" version="1.1" xmlns="http://www.w3.org/2000/svg" p-id="2801" xmlns:xlink="http://www.w3.org/1999/xlink" width="32" height="32"><defs><style type="text/css"></style></defs><path d="M902.120107 834.013867z" p-id="2802"></path><path d="M422.188373 290.921813c-38.908587 0-70.42048 31.102293-70.42048 69.34528 0 38.30784 31.49824 69.34528 70.42048 69.34528 38.877867 0 70.382933-31.040853 70.382934-69.34528 0.003413-38.242987-31.494827-69.34528-70.382934-69.34528z m246.316374 332.335787l19.879253-19.582293a54.82496 54.82496 0 0 0 0-78.42816l-34.4064-33.856854a260.324693 260.324693 0 0 0 25.856-60.931413h37.143893c31.09888 0 56.354133-24.828587 56.354134-55.442773v-27.746987c0-30.614187-25.25184-55.504213-56.354134-55.504213h-36.713813c-5.799253-21.285547-14.148267-41.598293-24.941227-60.44672l33.061547-32.508587c22.012587-21.712213 22.012587-56.84224 0-78.431573l-19.879253-19.64032c-22.016-21.654187-57.698987-21.654187-79.653547 0l-32.443733 31.894186c-19.787093-11.34592-41.202347-20.18304-63.832747-26.282666V69.082453C492.57472 38.478507 467.3536 13.653333 436.247893 13.653333h-28.142933c-31.105707 0-56.326827 24.825173-56.326827 55.442774V106.359467a270.277973 270.277973 0 0 0-63.860053 26.282666l-32.382293-31.890773c-21.981867-21.654187-57.668267-21.654187-79.650134 0l-19.913386 19.64032c-21.981867 21.592747-21.981867 56.71936 0 78.431573l33.061546 32.512c-10.76224 18.848427-19.11808 39.15776-24.920746 60.443307H127.368533c-31.143253 0-56.333653 24.879787-56.333653 55.504213v27.746987c0 30.614187 25.1904 55.442773 56.323413 55.442773h37.1712a259.058347 259.058347 0 0 0 25.8048 60.934827l-34.372266 33.850027a54.879573 54.879573 0 0 0 0 78.431573l19.913386 19.582293c21.98528 21.650773 57.668267 21.650773 79.650134 0l34.577066-34.03776a267.472213 267.472213 0 0 0 61.66528 24.941227v35.55328c0 30.6176 25.224533 55.446187 56.323414 55.446187h28.14976c31.09888 0 56.323413-24.828587 56.323413-55.446187v-35.55328a266.437973 266.437973 0 0 0 61.63456-24.941227l34.638507 34.03776c21.9648 21.643947 57.647787 21.643947 79.6672-0.013653z m-246.316374-108.752213c-85.54496 0-154.924373-68.314453-154.924373-152.470187 0-84.292267 69.379413-152.53504 154.924373-152.53504 85.541547 0 154.886827 68.253013 154.886827 152.53504 0 84.169387-69.341867 152.470187-154.886827 152.470187z m495.89248 297.946453h-17.810773c-2.80576-10.366293-6.826667-20.18304-12.07296-29.334187l15.977813-15.80032a26.51136 26.51136 0 0 0 0-38.055253l-9.639253-9.51296c-10.666667-10.496-27.941547-10.496-38.669653 0l-15.674027 15.489707a130.532693 130.532693 0 0 0-30.928213-12.755627v-18.046293c0-14.882133-12.264107-26.897067-27.323734-26.897067h-13.6704c-15.121067 0-27.323733 12.014933-27.323733 26.897067v18.046293a129.96608 129.96608 0 0 0-30.98624 12.755627l-15.735467-15.489707c-10.61888-10.496-27.938133-10.496-38.611626 0l-9.704107 9.51296a26.7264 26.7264 0 0 0 0 38.055253l16.042667 15.80032a129.061547 129.061547 0 0 0-12.076374 29.334187h-17.78688c-15.06304 0-27.327147 12.014933-27.327146 26.90048v13.4144c0 14.882133 12.264107 26.90048 27.327146 26.90048h18.046294a126.0544 126.0544 0 0 0 12.50304 29.58336l-16.708267 16.401067a26.719573 26.719573 0 0 0 0 38.055253l9.69728 9.454933c10.673493 10.55744 27.992747 10.55744 38.61504 0l16.827733-16.469333a128.04096 128.04096 0 0 0 29.883734 12.079787v17.257813c0 14.820693 12.202667 26.897067 27.327146 26.897067h13.666987c15.059627 0 27.327147-12.076373 27.327147-26.897067v-17.257813a131.775147 131.775147 0 0 0 29.88032-12.079787l16.708266 16.469333c10.73152 10.55744 27.989333 10.55744 38.669654 0l9.639253-9.454933c10.734933-10.554027 10.734933-27.559253 0-38.055253l-16.653653-16.401067a125.627733 125.627733 0 0 0 12.50304-29.58336h18.046293c15.127893 0 27.323733-12.018347 27.323733-26.90048v-13.4144c0.013653-14.875307-12.1856-26.90048-27.31008-26.90048z m-142.96064 108.014933c-41.53344 0-75.144533-33.122987-75.144533-73.97376 0-40.861013 33.611093-73.980587 75.144533-73.980586 41.468587 0 75.147947 33.119573 75.147947 73.980586 0 40.850773-33.67936 73.97376-75.147947 73.97376z m0-108.4416c-18.90304 0-34.1504 15.059627-34.1504 33.614507 0 18.599253 15.24736 33.60768 34.1504 33.60768 18.848427 0 34.157227-14.998187 34.157227-33.60768 0-18.551467-15.322453-33.614507-34.157227-33.614507z" p-id="2803"></path></svg>